<?xml version="1.0" encoding="utf-8"?>
<!-- Generator: Adobe Illustrator 17.0.0, SVG Export Plug-In . SVG Version: 6.00 Build 0)  -->
<!DOCTYPE svg PUBLIC "-//W3C//DTD SVG 1.1//EN" "http://www.w3.org/Graphics/SVG/1.1/DTD/svg11.dtd">
<svg version="1.1" id="Calque_1" xmlns="http://www.w3.org/2000/svg" xmlns:xlink="http://www.w3.org/1999/xlink" x="0px" y="0px"
	 width="1024px" height="768px" viewBox="0 0 1024 768" enable-background="new 0 0 1024 768" xml:space="preserve">
<image overflow="visible" width="3840" height="2160" xlink:href="schoolwallpaper.png"  transform="matrix(0.9999 0 0 0.9999 -1408 -696)">
</image>
<rect x="-284" y="356" fill="#DEDCC2" width="1544" height="188"/>
<g>
	<path fill="#16242F" d="M374.268,439.231c2.519,3.478,3.779,8.196,3.779,14.157v5.322c0,14.193-7.097,21.289-21.289,21.289h-26.611
		v-74.512h25.547c14.192,0,21.289,7.097,21.289,21.289C376.982,431.852,376.077,436.003,374.268,439.231z M346.113,421.455V432.1
		h9.58c3.548,0,5.322-1.773,5.322-5.322c0-3.548-1.774-5.322-5.322-5.322H346.113z M346.113,448.066v15.967h10.645
		c3.548,0,5.322-1.773,5.322-5.322v-5.322c0-3.548-1.774-5.322-5.322-5.322H346.113z"/>
	<path fill="#16242F" d="M431.269,405.488v15.967h-31.934v13.306h26.611v15.967h-26.611v13.306h31.934V480h-47.9v-74.512H431.269z"
		/>
	<path fill="#61C2D0" d="M436.592,426.777c0-14.192,7.096-21.289,21.289-21.289h5.322c14.192,0,21.289,7.097,21.289,21.289v5.322
		h-15.967v-5.322c0-3.548-1.774-5.322-5.322-5.322h-5.322c-3.548,0-5.322,1.774-5.322,5.322v31.934c0,3.549,1.774,5.322,5.322,5.322
		h5.322c3.548,0,5.322-1.773,5.322-5.322v-5.322h15.967v5.322c0,14.193-7.097,21.289-21.289,21.289h-5.322
		c-14.193,0-21.289-7.096-21.289-21.289V426.777z"/>
	<path fill="#61C2D0" d="M489.814,426.777c0-14.192,7.096-21.289,21.289-21.289h5.322c14.192,0,21.289,7.097,21.289,21.289v31.934
		c0,14.193-7.097,21.289-21.289,21.289h-5.322c-14.193,0-21.289-7.096-21.289-21.289V426.777z M505.781,458.711
		c0,3.549,1.774,5.322,5.322,5.322h5.322c3.548,0,5.322-1.773,5.322-5.322v-31.934c0-3.548-1.774-5.322-5.322-5.322h-5.322
		c-3.548,0-5.322,1.774-5.322,5.322V458.711z"/>
	<path fill="#61C2D0" d="M543.037,480v-74.512h26.611c14.192,0,21.289,7.097,21.289,21.289v31.934
		c0,14.193-7.097,21.289-21.289,21.289H543.037z M569.648,464.033c3.548,0,5.322-1.773,5.322-5.322v-31.934
		c0-3.548-1.774-5.322-5.322-5.322h-10.645v42.578H569.648z"/>
	<path fill="#61C2D0" d="M644.16,405.488v15.967h-31.934v13.306h26.611v15.967h-26.611v13.306h31.934V480h-47.9v-74.512H644.16z"/>
</g>
</svg>
